<svg xmlns="http://www.w3.org/2000/svg" viewBox="0 0 1440 320"><path fill="#ffffff" fill-opacity="1" d="M0,256L30,256C60,256,120,256,180,245.3C240,235,300,213,360,186.7C420,160,480,128,540,122.7C600,117,660,139,720,128C780,117,840,75,900,85.3C960,96,1020,160,1080,165.3C1140,171,1200,117,1260,90.7C1320,64,1380,64,1410,64L1440,64L1440,320L1410,320C1380,320,1320,320,1260,320C1200,320,1140,320,1080,320C1020,320,960,320,900,320C840,320,780,320,720,320C660,320,600,320,540,320C480,320,420,320,360,320C300,320,240,320,180,320C120,320,60,320,30,320L0,320Z"></path></svg>